<mxfile host="app.diagrams.net" modified="2022-05-18T07:25:20.470Z" agent="5.0 (Macintosh; Intel Mac OS X 10_15_7) AppleWebKit/537.36 (KHTML, like Gecko) Chrome/101.0.4951.64 Safari/537.36" etag="ZwSltfUaVb2vYF-OohT0" version="18.0.7" type="github">
  <diagram id="ILgwuj0upItFEALbLTPQ" name="Page-1">
    <mxGraphModel dx="946" dy="545" grid="1" gridSize="10" guides="1" tooltips="1" connect="1" arrows="1" fold="1" page="1" pageScale="1" pageWidth="827" pageHeight="1169" math="0" shadow="0">
      <root>
        <mxCell id="0" />
        <mxCell id="1" parent="0" />
        <mxCell id="OtkS_2fqpzm5jhgH_Aki-1" value="" style="rounded=0;whiteSpace=wrap;html=1;" vertex="1" parent="1">
          <mxGeometry x="100" y="100" width="230" height="140" as="geometry" />
        </mxCell>
        <mxCell id="OtkS_2fqpzm5jhgH_Aki-2" value="" style="ellipse;whiteSpace=wrap;html=1;" vertex="1" parent="1">
          <mxGeometry x="120" y="350" width="180" height="110" as="geometry" />
        </mxCell>
        <mxCell id="OtkS_2fqpzm5jhgH_Aki-3" value="" style="shape=flexArrow;endArrow=classic;html=1;rounded=0;exitX=0.583;exitY=1.029;exitDx=0;exitDy=0;exitPerimeter=0;entryX=0.5;entryY=0;entryDx=0;entryDy=0;" edge="1" parent="1" source="OtkS_2fqpzm5jhgH_Aki-1" target="OtkS_2fqpzm5jhgH_Aki-2">
          <mxGeometry width="50" height="50" relative="1" as="geometry">
            <mxPoint x="390" y="310" as="sourcePoint" />
            <mxPoint x="440" y="260" as="targetPoint" />
          </mxGeometry>
        </mxCell>
      </root>
    </mxGraphModel>
  </diagram>
</mxfile>
